<?xml version="1.0" encoding="utf-8"?>
<!DOCTYPE svg PUBLIC "-//W3C//DTD SVG 1.1//EN" "http://www.w3.org/Graphics/SVG/1.1/DTD/svg11.dtd">
<svg style="width:308px;height:308px;" version="1.1" id="图形" xmlns="http://www.w3.org/2000/svg" xmlns:xlink="http://www.w3.org/1999/xlink" x="0px" y="0px" width="1024px" height="1024px" viewBox="0 0 1024 1024" enable-background="new 0 0 1024 1024" xml:space="preserve">
  <path class="svgpath" data-index="path_0" fill="#000000" d="M902.4 790.912c8.384-12.928 5.632-30.016-6.272-39.68L732.736 618.24c-5.888-4.672-11.904-7.04-17.984-7.04-11.264 0-20.48 7.68-24.512 12.352l-34.112 35.136c-13.632 13.632-30.528 20.928-48.512 20.928s-36.16-7.168-53.824-21.312c-27.648-22.4-60.416-52.928-91.968-85.632C428.864 540.8 398.08 507.904 375.36 479.936c-27.904-34.816-28.16-73.856-0.576-102.08l36.928-35.776c0.192-0.192 21.184-19.328 3.776-40.96L282.304 137.472c-5.76-7.04-14.208-11.072-23.104-11.072C253.44 126.4 247.68 128 244.16 130.304L239.424 133.888 185.728 184.32l-3.84 4.032c-15.616 20.352-56.96 90.496-42.88 144.384 12.544 47.936 98.752 201.856 218.88 325.056l17.856 17.856c123.392 120.448 277.376 206.656 325.248 219.072 7.36 1.92 15.488 2.944 24.128 2.944 44.224 0 95.744-27.072 118.848-44.736l4.224-3.648 50.24-53.376L902.4 790.912z" />

</svg>
